<?xml version="1.0" encoding="UTF-8" standalone="no"?><svg xmlns="http://www.w3.org/2000/svg" xmlns:xlink="http://www.w3.org/1999/xlink" contentScriptType="application/ecmascript" contentStyleType="text/css" height="261px" preserveAspectRatio="none" style="width:664px;height:261px;" version="1.1" viewBox="0 0 664 261" width="664px" zoomAndPan="magnify"><defs><filter height="300%" id="f1iupmo9scfbd8" width="300%" x="-1" y="-1"><feGaussianBlur result="blurOut" stdDeviation="2.0"/><feColorMatrix in="blurOut" result="blurOut2" type="matrix" values="0 0 0 0 0 0 0 0 0 0 0 0 0 0 0 0 0 0 .4 0"/><feOffset dx="4.0" dy="4.0" in="blurOut2" result="blurOut3"/><feBlend in="SourceGraphic" in2="blurOut3" mode="normal"/></filter></defs><g><!--MD5=[91d4151b6d4c9a3d01b6d84b2458eece]
class CreditCard--><rect fill="#FEFECE" filter="url(#f1iupmo9scfbd8)" height="182.837" id="CreditCard" style="stroke: #A80036; stroke-width: 1.5;" width="393" x="260" y="38"/><ellipse cx="421.75" cy="54" fill="#ADD1B2" rx="11" ry="11" style="stroke: #A80036; stroke-width: 1.0;"/><path d="M421.2188,60.9219 Q419.4688,60.9219 418.3281,60.1875 Q417.2031,59.4375 416.6406,58.0938 Q416.0938,56.7344 416.0938,54.9375 Q416.0938,52.9063 416.75,51.4531 Q417.4063,50 418.6875,49.2188 Q419.9688,48.4375 421.8438,48.4375 Q422.7344,48.4375 423.4063,48.625 Q424.0781,48.7969 424.7656,49.1406 L423.9531,51.1563 Q423.3281,50.8438 422.7813,50.7188 Q422.25,50.5938 421.7656,50.5938 Q420.5938,50.5938 419.8906,51.125 Q419.1875,51.6563 418.8906,52.6094 Q418.5938,53.5625 418.5938,54.8281 Q418.5938,56.8438 419.3125,57.8125 Q420.0313,58.7656 421.625,58.7656 Q422.2188,58.7656 422.8438,58.6094 Q423.4688,58.4531 424.2969,58.0781 L424.2969,60.2969 Q423.5625,60.6094 422.7656,60.7656 Q421.9844,60.9219 421.2188,60.9219 Z "/><text fill="#000000" font-family="sans-serif" font-size="12" lengthAdjust="spacingAndGlyphs" textLength="61" x="442.25" y="58.656">CreditCard</text><line style="stroke: #A80036; stroke-width: 1.5;" x1="261" x2="652" y1="70" y2="70"/><text fill="#000000" font-family="sans-serif" font-size="11" lengthAdjust="spacingAndGlyphs" textLength="42" x="266" y="85.7589">number</text><text fill="#000000" font-family="sans-serif" font-size="11" lengthAdjust="spacingAndGlyphs" textLength="78" x="266" y="100.7408">expirationDate</text><text fill="#000000" font-family="sans-serif" font-size="11" lengthAdjust="spacingAndGlyphs" textLength="29" x="266" y="115.7227">name</text><text fill="#000000" font-family="sans-serif" font-size="11" lengthAdjust="spacingAndGlyphs" textLength="17" x="266" y="130.7046">cvv</text><line style="stroke: #A80036; stroke-width: 1.5;" x1="261" x2="652" y1="137.9276" y2="137.9276"/><text fill="#000000" font-family="sans-serif" font-size="11" lengthAdjust="spacingAndGlyphs" textLength="381" x="266" y="153.6865">CreditCard(number: String, expirationDate: String, name: String, cvv: int)</text><text fill="#000000" font-family="sans-serif" font-size="11" lengthAdjust="spacingAndGlyphs" textLength="66" x="266" y="168.6684">getNumber()</text><text fill="#000000" font-family="sans-serif" font-size="11" lengthAdjust="spacingAndGlyphs" textLength="101" x="266" y="183.6502">getExpirationDate()</text><text fill="#000000" font-family="sans-serif" font-size="11" lengthAdjust="spacingAndGlyphs" textLength="53" x="266" y="198.6321">getName()</text><text fill="#000000" font-family="sans-serif" font-size="11" lengthAdjust="spacingAndGlyphs" textLength="42" x="266" y="213.614">getCvv()</text><!--MD5=[c3cddcfa1f24e4a10425062bddd0501f]
class CreditCardTest--><rect fill="#FEFECE" filter="url(#f1iupmo9scfbd8)" height="242.7645" id="CreditCardTest" style="stroke: #A80036; stroke-width: 1.5;" width="219" x="6" y="8"/><ellipse cx="68.75" cy="24" fill="#ADD1B2" rx="11" ry="11" style="stroke: #A80036; stroke-width: 1.0;"/><path d="M68.2188,30.9219 Q66.4688,30.9219 65.3281,30.1875 Q64.2031,29.4375 63.6406,28.0938 Q63.0938,26.7344 63.0938,24.9375 Q63.0938,22.9063 63.75,21.4531 Q64.4063,20 65.6875,19.2188 Q66.9688,18.4375 68.8438,18.4375 Q69.7344,18.4375 70.4063,18.625 Q71.0781,18.7969 71.7656,19.1406 L70.9531,21.1563 Q70.3281,20.8438 69.7813,20.7188 Q69.25,20.5938 68.7656,20.5938 Q67.5938,20.5938 66.8906,21.125 Q66.1875,21.6563 65.8906,22.6094 Q65.5938,23.5625 65.5938,24.8281 Q65.5938,26.8438 66.3125,27.8125 Q67.0313,28.7656 68.625,28.7656 Q69.2188,28.7656 69.8438,28.6094 Q70.4688,28.4531 71.2969,28.0781 L71.2969,30.2969 Q70.5625,30.6094 69.7656,30.7656 Q68.9844,30.9219 68.2188,30.9219 Z "/><text fill="#000000" font-family="sans-serif" font-size="12" lengthAdjust="spacingAndGlyphs" textLength="85" x="89.25" y="28.656">CreditCardTest</text><line style="stroke: #A80036; stroke-width: 1.5;" x1="7" x2="224" y1="40" y2="40"/><text fill="#000000" font-family="sans-serif" font-size="11" lengthAdjust="spacingAndGlyphs" textLength="42" x="12" y="55.7589">number</text><text fill="#000000" font-family="sans-serif" font-size="11" lengthAdjust="spacingAndGlyphs" textLength="78" x="12" y="70.7408">expirationDate</text><text fill="#000000" font-family="sans-serif" font-size="11" lengthAdjust="spacingAndGlyphs" textLength="29" x="12" y="85.7227">name</text><text fill="#000000" font-family="sans-serif" font-size="11" lengthAdjust="spacingAndGlyphs" textLength="17" x="12" y="100.7046">cvv</text><text fill="#000000" font-family="sans-serif" font-size="11" lengthAdjust="spacingAndGlyphs" textLength="23" x="12" y="115.6865">card</text><line style="stroke: #A80036; stroke-width: 1.5;" x1="7" x2="224" y1="122.9094" y2="122.9094"/><text fill="#000000" font-family="sans-serif" font-size="11" lengthAdjust="spacingAndGlyphs" textLength="36" x="12" y="138.6684">setUp()</text><text fill="#000000" font-family="sans-serif" font-size="11" lengthAdjust="spacingAndGlyphs" textLength="88" x="12" y="153.6502">testConstructor()</text><text fill="#000000" font-family="sans-serif" font-size="11" lengthAdjust="spacingAndGlyphs" textLength="167" x="12" y="168.6321">ConstructorWithInvalidFormat()</text><text fill="#000000" font-family="sans-serif" font-size="11" lengthAdjust="spacingAndGlyphs" textLength="207" x="12" y="183.614">ConstructorWithInvalidExpirationDate()</text><text fill="#000000" font-family="sans-serif" font-size="11" lengthAdjust="spacingAndGlyphs" textLength="66" x="12" y="198.5959">getNumber()</text><text fill="#000000" font-family="sans-serif" font-size="11" lengthAdjust="spacingAndGlyphs" textLength="101" x="12" y="213.5778">getExpirationDate()</text><text fill="#000000" font-family="sans-serif" font-size="11" lengthAdjust="spacingAndGlyphs" textLength="53" x="12" y="228.5597">getName()</text><text fill="#000000" font-family="sans-serif" font-size="11" lengthAdjust="spacingAndGlyphs" textLength="42" x="12" y="243.5416">getCvv()</text><!--MD5=[e0b9904ebbd22e593d1ca4390cce7118]
link CreditCardTest to CreditCard--><path d="M225.06,129.5 C234.94,129.5 244.82,129.5 254.7,129.5 " fill="none" id="CreditCardTest-&gt;CreditCard" style="stroke: #A80036; stroke-width: 1.0;"/><polygon fill="#A80036" points="259.87,129.5,250.87,125.5,254.87,129.5,250.87,133.5,259.87,129.5" style="stroke: #A80036; stroke-width: 1.0;"/><!--MD5=[2b216ff81cb6c4e8d4ae1222611c6972]
@startuml diagram
class CreditCard {
  number
  expirationDate
  name
  cvv
  CreditCard(number: String, expirationDate: String, name: String, cvv: int)
  getNumber()
  getExpirationDate()
  getName()
  getCvv()
}
class CreditCardTest {
  number
  expirationDate
  name
  cvv
  card
  setUp()
  testConstructor()
  ConstructorWithInvalidFormat()
  ConstructorWithInvalidExpirationDate()
  getNumber()
  getExpirationDate()
  getName()
  getCvv()
}
CreditCardTest -> CreditCard
@enduml

PlantUML version 1.2020.02(Sun Mar 01 11:22:07 CET 2020)
(GPL source distribution)
Java Runtime: OpenJDK Runtime Environment
JVM: OpenJDK 64-Bit Server VM
Java Version: 18.0.2-ea+9-Ubuntu-222.04
Operating System: Linux
Default Encoding: UTF-8
Language: en
Country: US
--></g></svg>